<svg xmlns="http://www.w3.org/2000/svg" width="778" height="402" viewBox="0 0 778 402">
    <g fill="none" fill-rule="evenodd" opacity=".1">
        <path fill="#2E5B66" d="M138.467 143.167a23.428 23.428 0 0 0-7.775 7.79l-.449.733c-2.673 4.387-9.069 4.42-11.787.06l-.842-1.357a23.571 23.571 0 0 0-7.896-7.746l-.373-.222c-4.463-2.676-4.46-9.112.009-11.779l1.864-1.113a15.974 15.974 0 0 0 5.353-5.242l1.906-3.047c2.718-4.345 9.087-4.321 11.77.047l1.61 2.614a15.672 15.672 0 0 0 5.206 5.185l2.632 1.6c4.397 2.674 4.41 9.02.02 11.71l-1.248.767zM539.467 390.167a23.428 23.428 0 0 0-7.775 7.79l-.449.733c-2.673 4.387-9.069 4.42-11.787.06l-.842-1.357a23.571 23.571 0 0 0-7.896-7.746l-.373-.222c-4.463-2.676-4.46-9.112.009-11.779l1.864-1.113a15.974 15.974 0 0 0 5.353-5.242l1.906-3.047c2.718-4.345 9.087-4.321 11.77.047l1.61 2.614a15.672 15.672 0 0 0 5.206 5.185l2.632 1.6c4.397 2.674 4.41 9.02.02 11.71l-1.248.767zM142.55 395.604a12.664 12.664 0 0 0-4.203 4.21l-.242.397c-1.446 2.371-4.903 2.389-6.372.032l-.455-.733a12.741 12.741 0 0 0-4.268-4.187l-.202-.12c-2.412-1.447-2.41-4.926.005-6.367l1.007-.602a8.635 8.635 0 0 0 2.894-2.834l1.03-1.647c1.47-2.348 4.912-2.335 6.362.026l.87 1.413a8.472 8.472 0 0 0 2.815 2.803l1.423.865c2.376 1.445 2.383 4.875.01 6.33l-.674.414zM770.55 13.604a12.664 12.664 0 0 0-4.203 4.21l-.242.397c-1.446 2.371-4.903 2.389-6.372.032l-.455-.733a12.741 12.741 0 0 0-4.268-4.187l-.202-.12c-2.412-1.447-2.41-4.926.005-6.367l1.007-.602a8.635 8.635 0 0 0 2.894-2.834l1.03-1.647c1.47-2.348 4.912-2.335 6.362.026l.87 1.413a8.472 8.472 0 0 0 2.815 2.803l1.423.865c2.376 1.445 2.383 4.875.01 6.33l-.674.414z"/>
        <circle cx="773.5" cy="220.5" r="4.5" fill="#172A3A"/>
        <circle cx="68.5" cy="259.5" r="4.5" fill="#172A3A"/>
        <circle cx="9" cy="77" r="9" fill="#172A3A"/>
    </g>
</svg>