<?xml version="1.0" encoding="iso-8859-1"?>
<!-- Generator: Adobe Illustrator 19.0.0, SVG Export Plug-In . SVG Version: 6.00 Build 0)  -->
<svg xmlns="http://www.w3.org/2000/svg" xmlns:xlink="http://www.w3.org/1999/xlink" version="1.1" id="Capa_1" x="0px" y="0px" viewBox="0 0 426.667 426.667" style="enable-background:new 0 0 426.667 426.667;" xml:space="preserve" width="512px" height="512px">
<g>
	<g>
		<path d="M384,0H42.667C19.093,0,0.213,19.093,0.213,42.667L0,426.667l85.333-85.333H384c23.573,0,42.667-19.093,42.667-42.667    v-256C426.667,19.093,407.573,0,384,0z M85.333,256v-52.8L232.107,56.427c4.16-4.16,10.88-4.16,15.04,0l37.76,37.76    c4.16,4.16,4.16,10.88,0,15.04L138.133,256H85.333z M341.333,256h-160L224,213.333h117.333V256z" fill="#b0b0b0"/>
	</g>
</g>
<g>
</g>
<g>
</g>
<g>
</g>
<g>
</g>
<g>
</g>
<g>
</g>
<g>
</g>
<g>
</g>
<g>
</g>
<g>
</g>
<g>
</g>
<g>
</g>
<g>
</g>
<g>
</g>
<g>
</g>
</svg>
