<svg version="1.1" xmlns="http://www.w3.org/2000/svg" xmlns:xlink="http://www.w3.org/1999/xlink" viewBox="0 0 18 17">
<path id="chart-x" d="M17.082,15.102 C17.082,15.531 16.938,15.890 16.652,16.176 C16.366,16.462 16.008,16.605 15.578,16.605 C15.148,16.605 14.776,16.462 14.461,16.176 C14.461,16.176 8.832,10.547 8.832,10.547 C8.832,10.547 3.203,16.176 3.203,16.176 C2.888,16.462 2.530,16.605 2.129,16.605 C1.727,16.605 1.370,16.462 1.055,16.176 C0.739,15.890 0.582,15.531 0.582,15.102 C0.582,14.672 0.739,14.300 1.055,13.984 C1.055,13.984 6.641,8.355 6.641,8.355 C6.641,8.355 1.055,2.727 1.055,2.727 C0.739,2.412 0.582,2.039 0.582,1.609 C0.582,1.180 0.739,0.822 1.055,0.535 C1.370,0.249 1.727,0.105 2.129,0.105 C2.530,0.105 2.888,0.249 3.203,0.535 C3.203,0.535 8.832,6.164 8.832,6.164 C8.832,6.164 14.461,0.535 14.461,0.535 C14.776,0.249 15.148,0.105 15.578,0.105 C16.008,0.105 16.366,0.249 16.652,0.535 C16.938,0.822 17.082,1.180 17.082,1.609 C17.082,2.039 16.938,2.412 16.652,2.727 C16.652,2.727 11.023,8.355 11.023,8.355 C11.023,8.355 16.652,13.984 16.652,13.984 C16.938,14.300 17.082,14.672 17.082,15.102 z" fill="#FF9474"/>
</svg>