<svg xmlns="http://www.w3.org/2000/svg" viewBox="5676 2353 39.348 60.604">
  <defs>
    <style>
      .cls-1 {
        fill: #e0cba2;
      }
    </style>
  </defs>
  <path id="Path_81" data-name="Path 81" class="cls-1" d="M39.286,13.1l-.749-3.868a2.7,2.7,0,0,0-2.5-2L34.42,1.83A2.818,2.818,0,0,0,31.633,0h-24A2.818,2.818,0,0,0,4.845,1.83L3.265,7.238a2.705,2.705,0,0,0-2.537,2L-.021,13.1a1.339,1.339,0,0,0,1.414,1.456H2.724L3.6,21.838H3.39a1.289,1.289,0,0,0-1.414,1.331l2.7,24.25A1.339,1.339,0,0,0,6.093,48.5h.832L8.3,59.523A1.339,1.339,0,0,0,9.712,60.6H29.927a1.345,1.345,0,0,0,1.414-1.081L32.631,48.5h.541a1.345,1.345,0,0,0,1.414-1.081l2.7-24.25a1.311,1.311,0,0,0-1.414-1.331h-.125l.874-7.279h1.248A1.281,1.281,0,0,0,39.286,13.1ZM7.632,2.413H31.674L33.13,7.279H6.177ZM28.638,58.192H11L9.8,48.5H29.8Zm4.284-36.4H6.468l-.874-7.238H33.837Z" transform="translate(5676.036 2353)"/>
</svg>