<?xml version="1.0" encoding="UTF-8"?>
<!DOCTYPE svg PUBLIC "-//W3C//DTD SVG 1.1//EN" "http://www.w3.org/Graphics/SVG/1.1/DTD/svg11.dtd">
<svg enable-background="new 0 0 128 128" id="Слой_1" version="1.1" viewBox="0 0 128 128" xml:space="preserve" xmlns="http://www.w3.org/2000/svg" xmlns:xlink="http://www.w3.org/1999/xlink"><g><g><g><path d="M100.292,110c-0.254,0-0.509-0.097-0.704-0.29l-17.32-17.151c-1.235-1.251-1.222-3.262,0.021-4.49     l5.407-5.333c1.206-1.188,3.292-1.173,4.481,0.031l17.11,17.35c0.388,0.393,0.383,1.026-0.009,1.414l-8.285,8.181     C100.8,109.904,100.546,110,100.292,110z M89.922,83.824c-0.309,0-0.601,0.12-0.82,0.336l-5.407,5.333     c-0.458,0.453-0.464,1.195-0.011,1.653l16.609,16.448l6.871-6.784L90.756,84.172C90.534,83.948,90.238,83.824,89.922,83.824z" fill="#323638"/></g></g><g><g><path d="M56.305,93.765c-20.888,0-37.882-16.994-37.882-37.883C18.422,34.994,35.417,18,56.305,18     s37.882,16.994,37.882,37.882C94.187,76.771,77.193,93.765,56.305,93.765z M56.305,20c-19.786,0-35.882,16.097-35.882,35.882     s16.097,35.883,35.882,35.883s35.882-16.097,35.882-35.883S76.09,20,56.305,20z" fill="#323638"/></g></g></g></svg>