<svg id="Layer_1" data-name="Layer 1" xmlns="http://www.w3.org/2000/svg" viewBox="0 0 200 200"><defs><style>.cls-1{fill:none;stroke:#000;stroke-linecap:round;stroke-linejoin:round;stroke-width:1.5px;}.cls-2{fill:#e42526;}</style></defs><title>store-map</title><polygon class="cls-1" points="2.82 152.54 68.34 184 113.95 162.35 87.4 149.66 83.94 147.92 48.43 130.89 2.82 152.54"/><polygon class="cls-1" points="54.78 127.71 90.58 144.74 110.19 135.5 136.17 123.09 100.39 106.06 54.78 127.71"/><polygon class="cls-1" points="97.2 147.92 120.59 159.17 152.34 174.47 171.97 165.24 116.55 138.68 97.2 147.92"/><polygon class="cls-1" points="197.95 152.54 142.81 126.27 123.18 135.51 178.32 162.06 197.95 152.54"/><path class="cls-2" d="M86.36,22A38.35,38.35,0,0,0,48,60.35c0,21.18,38.36,73.79,38.36,73.79s38.36-52.61,38.36-73.79A38.35,38.35,0,0,0,86.36,22Zm0,54.61a16.26,16.26,0,1,1,16.26-16.26A16.26,16.26,0,0,1,86.36,76.61Z"/></svg>