<?xml version="1.0" encoding="iso-8859-1"?>
<!-- Generator: Adobe Illustrator 19.0.0, SVG Export Plug-In . SVG Version: 6.00 Build 0)  -->
<svg version="1.1" id="Capa_1" xmlns="http://www.w3.org/2000/svg" xmlns:xlink="http://www.w3.org/1999/xlink" x="0px" y="0px"
	 viewBox="0 0 512 512" style="enable-background:new 0 0 512 512;" xml:space="preserve">
<path style="fill:#B9D8F4;" d="M422.367,512H89.632c-11.969,0-21.671-9.702-21.671-21.671V21.671C67.962,9.702,77.664,0,89.632,0
	h332.735c11.969,0,21.671,9.702,21.671,21.671v468.658C444.037,502.298,434.335,512,422.367,512z"/>
<path style="fill:#96C8EF;" d="M89.632,0C77.664,0,67.962,9.702,67.962,21.671v468.658c0,11.969,9.702,21.671,21.671,21.671h242.008
	C113.909,404.825,151.291,0,151.291,0H89.632z"/>
<path style="fill:#D1E7F8;" d="M255.999,0H89.632C77.664,0,67.962,9.702,67.962,21.671v468.658c0,11.969,9.702,21.671,21.671,21.671
	h166.367V0z"/>
<path style="fill:#B9D8F4;" d="M89.632,0C77.664,0,67.962,9.702,67.962,21.671v468.658c0,11.969,9.702,21.671,21.671,21.671h166.367
	v-58.728C123.416,301.863,151.291,0,151.291,0H89.632z"/>
<g>
	<path style="fill:#FF728B;" d="M151.291,183.697c-4.267,0-7.726-3.459-7.726-7.726v-44.012l-10.563,8.843
		c-2.869,2.403-7.05,2.403-9.92,0l-10.563-8.843v44.012c0,4.267-3.459,7.726-7.726,7.726c-4.267,0-7.726-3.459-7.726-7.726v-60.557
		c0-3.001,1.738-5.731,4.458-7c2.719-1.27,5.927-0.851,8.229,1.077l18.29,15.313l18.29-15.313c2.3-1.927,5.507-2.347,8.229-1.077
		c2.72,1.269,4.458,3.999,4.458,7v60.557C159.017,180.237,155.558,183.697,151.291,183.697z"/>
	<path style="fill:#FF728B;" d="M224.284,168.244h-29.041v-14.826h18.227c4.267,0,7.726-3.459,7.726-7.726s-3.459-7.726-7.726-7.726
		h-18.227v-14.826h29.041c4.267,0,7.726-3.459,7.726-7.726c0-4.267-3.459-7.726-7.726-7.726h-36.767
		c-4.267,0-7.726,3.459-7.726,7.726v60.557c0,4.267,3.459,7.726,7.726,7.726h36.767c4.267,0,7.726-3.459,7.726-7.726
		C232.011,171.702,228.551,168.244,224.284,168.244z"/>
	<path style="fill:#FF728B;" d="M151.291,199.604c-4.267,0-7.726,3.459-7.726,7.726v27.459l-33.342-32.954
		c-2.217-2.192-5.534-2.834-8.408-1.635c-2.876,1.201-4.749,4.014-4.749,7.13v60.557c0,4.267,3.459,7.726,7.726,7.726
		c4.267,0,7.726-3.459,7.726-7.726V225.83l31.047,30.685v11.372c0,4.267,3.459,7.726,7.726,7.726c4.267,0,7.726-3.459,7.726-7.726
		V207.33C159.017,203.063,155.558,199.604,151.291,199.604z"/>
	<path style="fill:#FF728B;" d="M205.901,275.615c-7.183,0-13.385-2.425-17.935-7.014c-8.051-8.118-8.186-19.996-8.174-21.324
		V207.33c0-4.267,3.459-7.726,7.726-7.726c4.267,0,7.726,3.459,7.726,7.726v40.011c0,0.049-0.114,12.82,10.657,12.82
		c10.773,0,10.657-12.77,10.657-12.809v-40.023c0-4.267,3.459-7.726,7.726-7.726c4.267,0,7.726,3.459,7.726,7.726v40.011
		c0.011,1.263-0.124,13.14-8.174,21.259C219.286,273.189,213.084,275.615,205.901,275.615z"/>
</g>
<g>
	<path style="fill:#FFFFFF;" d="M215.732,339.643H113.343c-4.267,0-7.726-3.459-7.726-7.726s3.459-7.726,7.726-7.726h102.389
		c4.267,0,7.726,3.459,7.726,7.726S219.999,339.643,215.732,339.643z"/>
	<path style="fill:#FFFFFF;" d="M401.213,123.14H298.824c-4.267,0-7.726-3.459-7.726-7.726c0-4.267,3.459-7.726,7.726-7.726h102.389
		c4.267,0,7.726,3.459,7.726,7.726C408.939,119.68,405.48,123.14,401.213,123.14z"/>
	<path style="fill:#FFFFFF;" d="M401.213,156.783H298.824c-4.267,0-7.726-3.459-7.726-7.726s3.459-7.726,7.726-7.726h102.389
		c4.267,0,7.726,3.459,7.726,7.726S405.48,156.783,401.213,156.783z"/>
	<path style="fill:#FFFFFF;" d="M401.213,190.429H298.824c-4.267,0-7.726-3.459-7.726-7.726c0-4.267,3.459-7.726,7.726-7.726
		h102.389c4.267,0,7.726,3.459,7.726,7.726C408.939,186.97,405.48,190.429,401.213,190.429z"/>
	<path style="fill:#FFFFFF;" d="M329.969,319.127h-31.144c-4.267,0-7.726-3.459-7.726-7.726c0-4.267,3.459-7.726,7.726-7.726h31.143
		c4.267,0,7.726,3.459,7.726,7.726C337.694,315.668,334.236,319.127,329.969,319.127z"/>
	<path style="fill:#FFFFFF;" d="M401.213,319.127h-31.143c-4.267,0-7.726-3.459-7.726-7.726c0-4.267,3.459-7.726,7.726-7.726h31.143
		c4.267,0,7.726,3.459,7.726,7.726C408.939,315.668,405.48,319.127,401.213,319.127z"/>
	<path style="fill:#FFFFFF;" d="M329.969,354.182h-31.144c-4.267,0-7.726-3.459-7.726-7.726c0-4.267,3.459-7.726,7.726-7.726h31.143
		c4.267,0,7.726,3.459,7.726,7.726C337.694,350.723,334.236,354.182,329.969,354.182z"/>
	<path style="fill:#FFFFFF;" d="M401.213,354.182h-31.143c-4.267,0-7.726-3.459-7.726-7.726c0-4.267,3.459-7.726,7.726-7.726h31.143
		c4.267,0,7.726,3.459,7.726,7.726C408.939,350.723,405.48,354.182,401.213,354.182z"/>
	<path style="fill:#FFFFFF;" d="M329.969,389.237h-31.144c-4.267,0-7.726-3.459-7.726-7.726c0-4.267,3.459-7.726,7.726-7.726h31.143
		c4.267,0,7.726,3.459,7.726,7.726C337.694,385.778,334.236,389.237,329.969,389.237z"/>
	<path style="fill:#FFFFFF;" d="M401.213,389.237h-31.143c-4.267,0-7.726-3.459-7.726-7.726c0-4.267,3.459-7.726,7.726-7.726h31.143
		c4.267,0,7.726,3.459,7.726,7.726C408.939,385.778,405.48,389.237,401.213,389.237z"/>
	<path style="fill:#FFFFFF;" d="M329.969,424.291h-31.144c-4.267,0-7.726-3.459-7.726-7.726s3.459-7.726,7.726-7.726h31.143
		c4.267,0,7.726,3.459,7.726,7.726S334.236,424.291,329.969,424.291z"/>
	<path style="fill:#FFFFFF;" d="M401.213,424.291h-31.143c-4.267,0-7.726-3.459-7.726-7.726s3.459-7.726,7.726-7.726h31.143
		c4.267,0,7.726,3.459,7.726,7.726S405.48,424.291,401.213,424.291z"/>
	<path style="fill:#FFFFFF;" d="M329.969,459.346h-31.144c-4.267,0-7.726-3.459-7.726-7.726c0-4.267,3.459-7.726,7.726-7.726h31.143
		c4.267,0,7.726,3.459,7.726,7.726C337.694,455.887,334.236,459.346,329.969,459.346z"/>
	<path style="fill:#FFFFFF;" d="M401.213,459.346h-31.143c-4.267,0-7.726-3.459-7.726-7.726c0-4.267,3.459-7.726,7.726-7.726h31.143
		c4.267,0,7.726,3.459,7.726,7.726C408.939,455.887,405.48,459.346,401.213,459.346z"/>
	<path style="fill:#FFFFFF;" d="M214.453,371.979h-99.831c-4.267,0-7.726-3.459-7.726-7.726s3.459-7.726,7.726-7.726h99.831
		c4.267,0,7.726,3.459,7.726,7.726S218.72,371.979,214.453,371.979z"/>
	<path style="fill:#FFFFFF;" d="M197.348,404.313h-65.62c-4.267,0-7.726-3.459-7.726-7.726c0-4.267,3.459-7.726,7.726-7.726h65.62
		c4.267,0,7.726,3.459,7.726,7.726C205.075,400.854,201.615,404.313,197.348,404.313z"/>
</g>
<path style="fill:#FFEB99;" d="M390.324,81.769h-80.61c-13.298,0-24.177-10.88-24.177-24.177l0,0
	c0-13.298,10.88-24.177,24.177-24.177h80.61c13.298,0,24.177,10.88,24.177,24.177l0,0C414.501,70.888,403.621,81.769,390.324,81.769
	z"/>
<path style="fill:#00DDC2;" d="M390.324,276.347h-80.61c-13.298,0-24.177-10.88-24.177-24.177l0,0
	c0-13.298,10.88-24.177,24.177-24.177h80.61c13.298,0,24.177,10.88,24.177,24.177l0,0
	C414.501,265.466,403.621,276.347,390.324,276.347z"/>
<g>
</g>
<g>
</g>
<g>
</g>
<g>
</g>
<g>
</g>
<g>
</g>
<g>
</g>
<g>
</g>
<g>
</g>
<g>
</g>
<g>
</g>
<g>
</g>
<g>
</g>
<g>
</g>
<g>
</g>
</svg>
