<?xml version="1.0" encoding="iso-8859-1"?>
<!-- Generator: Adobe Illustrator 19.0.0, SVG Export Plug-In . SVG Version: 6.00 Build 0)  -->
<svg xmlns="http://www.w3.org/2000/svg" xmlns:xlink="http://www.w3.org/1999/xlink" version="1.1" id="Capa_1" x="0px" y="0px" viewBox="0 0 512 512" style="enable-background:new 0 0 512 512;" xml:space="preserve" width="512px" height="512px">
<g>
	<g>
		<path d="M458.667,0H53.333c-5.888,0-10.667,4.779-10.667,10.667v490.667c0,5.888,4.779,10.667,10.667,10.667h405.333    c5.888,0,10.667-4.779,10.667-10.667V10.667C469.333,4.779,464.555,0,458.667,0z M288,448H138.667    c-5.888,0-10.667-4.779-10.667-10.667c0-5.888,4.779-10.667,10.667-10.667H288c5.888,0,10.667,4.779,10.667,10.667    C298.667,443.221,293.888,448,288,448z M288,384H138.667c-5.888,0-10.667-4.779-10.667-10.667c0-5.888,4.779-10.667,10.667-10.667    H288c5.888,0,10.667,4.779,10.667,10.667C298.667,379.221,293.888,384,288,384z M288,320H138.667    c-5.888,0-10.667-4.779-10.667-10.667s4.779-10.667,10.667-10.667H288c5.888,0,10.667,4.779,10.667,10.667S293.888,320,288,320z     M288,256H138.667c-5.888,0-10.667-4.779-10.667-10.667s4.779-10.667,10.667-10.667H288c5.888,0,10.667,4.779,10.667,10.667    S293.888,256,288,256z M266.667,127.104v22.229H288c5.888,0,10.667,4.779,10.667,10.667s-4.779,10.667-10.667,10.667h-64    c-5.888,0-10.667-4.779-10.667-10.667s4.779-10.667,10.667-10.667h21.333v-22.229C215.125,122.837,192,101.035,192,74.667    C192,68.779,196.779,64,202.667,64h106.667C315.221,64,320,68.779,320,74.667C320,101.035,296.875,122.837,266.667,127.104z     M373.333,448H352c-5.888,0-10.667-4.779-10.667-10.667c0-5.888,4.779-10.667,10.667-10.667h21.333    c5.888,0,10.667,4.779,10.667,10.667C384,443.221,379.221,448,373.333,448z M373.333,384H352c-5.888,0-10.667-4.779-10.667-10.667    c0-5.888,4.779-10.667,10.667-10.667h21.333c5.888,0,10.667,4.779,10.667,10.667C384,379.221,379.221,384,373.333,384z     M373.333,320H352c-5.888,0-10.667-4.779-10.667-10.667s4.779-10.667,10.667-10.667h21.333c5.888,0,10.667,4.779,10.667,10.667    S379.221,320,373.333,320z M373.333,256H352c-5.888,0-10.667-4.779-10.667-10.667s4.779-10.667,10.667-10.667h21.333    c5.888,0,10.667,4.779,10.667,10.667S379.221,256,373.333,256z" fill="#bababa"/>
	</g>
</g>
<g>
</g>
<g>
</g>
<g>
</g>
<g>
</g>
<g>
</g>
<g>
</g>
<g>
</g>
<g>
</g>
<g>
</g>
<g>
</g>
<g>
</g>
<g>
</g>
<g>
</g>
<g>
</g>
<g>
</g>
</svg>
